# Generated by ps1_brender tools: https://github.com/OverSurge/PS1-BRender-Reverse
mtllib 0a1a800.MTL
usemtl mtl1
s off
vt 0.1787109375 0.5322265625
vt 0.1328125 0.5322265625
vt 0.1787109375 0.578125
vt 0.1328125 0.578125
vt 0.9873046875 0.93359375
vt 0.96484375 0.93359375
vt 0.9873046875 0.9638671875
vt 0.96484375 0.9638671875
vt 0.0400390625 0.9482421875
vt 0.0390625 0.9482421875
vt 0.0400390625 0.94921875
vt 0.0390625 0.94921875
vt 0.0517578125 0.9482421875
vt 0.05078125 0.9482421875
vt 0.0517578125 0.94921875
vt 0.05078125 0.94921875
vt 0.0400390625 0.9462890625
vt 0.0390625 0.9462890625
vt 0.0400390625 0.947265625
vt 0.0390625 0.947265625
vt 0.0517578125 0.9462890625
vt 0.05078125 0.9462890625
vt 0.0517578125 0.947265625
vt 0.05078125 0.947265625
vt 0.0205078125 0.9453125
vt 0.01953125 0.9453125
vt 0.0205078125 0.9462890625
vt 0.01953125 0.9462890625
vt 0.9873046875 0.91015625
vt 0.96484375 0.91015625
vt 0.9873046875 0.9326171875
vt 0.96484375 0.9326171875
vt 0.9873046875 0.91015625
vt 0.96484375 0.91015625
vt 0.9873046875 0.9326171875
vt 0.96484375 0.9326171875
vt 0.5654296875 0.75390625
vt 0.54296875 0.75390625
vt 0.5654296875 0.7763671875
vt 0.54296875 0.7763671875
vt 0.5654296875 0.75390625
vt 0.54296875 0.75390625
vt 0.5654296875 0.7763671875
vt 0.54296875 0.7763671875
vt 0.5927734375 0.75390625
vt 0.5703125 0.75390625
vt 0.5927734375 0.7763671875
vt 0.5703125 0.7763671875
vt 0.5927734375 0.75390625
vt 0.5703125 0.75390625
vt 0.5927734375 0.7763671875
vt 0.5703125 0.7763671875
vt 0.6201171875 0.75390625
vt 0.59765625 0.75390625
vt 0.6201171875 0.7763671875
vt 0.59765625 0.7763671875
vt 0.6201171875 0.75390625
vt 0.59765625 0.75390625
vt 0.6201171875 0.7763671875
vt 0.59765625 0.7763671875
vt 0.6474609375 0.75390625
vt 0.625 0.75390625
vt 0.6474609375 0.7763671875
vt 0.625 0.7763671875
vt 0.6474609375 0.75390625
vt 0.625 0.75390625
vt 0.6474609375 0.7763671875
vt 0.625 0.7763671875
vt 0.6748046875 0.75390625
vt 0.65234375 0.75390625
vt 0.6748046875 0.7763671875
vt 0.65234375 0.7763671875
vt 0.6748046875 0.75390625
vt 0.65234375 0.75390625
vt 0.6748046875 0.7763671875
vt 0.65234375 0.7763671875
vt 0.7021484375 0.75390625
vt 0.6796875 0.75390625
vt 0.7021484375 0.7763671875
vt 0.6796875 0.7763671875
vt 0.7021484375 0.75390625
vt 0.6796875 0.75390625
vt 0.7021484375 0.7763671875
vt 0.6796875 0.7763671875
vt 0.7294921875 0.75390625
vt 0.70703125 0.75390625
vt 0.7294921875 0.7763671875
vt 0.70703125 0.7763671875
vt 0.7294921875 0.75390625
vt 0.70703125 0.75390625
vt 0.7294921875 0.7763671875
vt 0.70703125 0.7763671875
vt 0.9873046875 0.86328125
vt 0.96484375 0.86328125
vt 0.9873046875 0.8857421875
vt 0.96484375 0.8857421875
vt 0.9873046875 0.86328125
vt 0.96484375 0.86328125
vt 0.9873046875 0.8857421875
vt 0.96484375 0.8857421875
vt 0.9873046875 0.83203125
vt 0.96484375 0.83203125
vt 0.9873046875 0.8623046875
vt 0.96484375 0.8623046875
vt 0.0322265625 0.9453125
vt 0.03125 0.9453125
vt 0.0322265625 0.9462890625
vt 0.03125 0.9462890625
vt 0.0439453125 0.9443359375
vt 0.04296875 0.9443359375
vt 0.0439453125 0.9453125
vt 0.04296875 0.9453125
vt 0.0556640625 0.9443359375
vt 0.0546875 0.9443359375
vt 0.0556640625 0.9453125
vt 0.0546875 0.9453125
vt 0.0205078125 0.943359375
vt 0.01953125 0.943359375
vt 0.0205078125 0.9443359375
vt 0.01953125 0.9443359375
vt 0.0322265625 0.943359375
vt 0.03125 0.943359375
vt 0.0322265625 0.9443359375
vt 0.03125 0.9443359375
vt 0.4912109375 0.865234375
vt 0.4609375 0.865234375
vt 0.4912109375 0.8955078125
vt 0.4609375 0.8955078125
vt 0.4912109375 0.833984375
vt 0.4609375 0.833984375
vt 0.4912109375 0.8642578125
vt 0.4609375 0.8642578125
vt 0.2294921875 0.6259765625
vt 0.19921875 0.6259765625
vt 0.2294921875 0.65625
vt 0.19921875 0.65625
vt 0.2294921875 0.5947265625
vt 0.19921875 0.5947265625
vt 0.2294921875 0.625
vt 0.19921875 0.625
vt 0.2294921875 0.5634765625
vt 0.19921875 0.5634765625
vt 0.2294921875 0.59375
vt 0.19921875 0.59375
vt 0.0302734375 0.5400390625
vt 0.0 0.5400390625
vt 0.0302734375 0.5703125
vt 0.0 0.5703125
vt 0.0654296875 0.5400390625
vt 0.03515625 0.5400390625
vt 0.0654296875 0.5703125
vt 0.03515625 0.5703125
vt 0.1005859375 0.5400390625
vt 0.0703125 0.5400390625
vt 0.1005859375 0.5703125
vt 0.0703125 0.5703125
vt 0.4599609375 0.896484375
vt 0.4296875 0.896484375
vt 0.4599609375 0.9423828125
vt 0.4296875 0.9423828125
vt 0.3583984375 0.8759765625
vt 0.328125 0.8759765625
vt 0.3583984375 0.921875
vt 0.328125 0.921875
vt 0.0302734375 0.8515625
vt 0.0 0.8515625
vt 0.0302734375 0.8974609375
vt 0.0 0.8974609375
vt 0.0966796875 0.8515625
vt 0.06640625 0.8515625
vt 0.0966796875 0.8974609375
vt 0.06640625 0.8974609375
vt 0.1630859375 0.8515625
vt 0.1328125 0.8515625
vt 0.1630859375 0.8974609375
vt 0.1328125 0.8974609375
vt 0.4248046875 0.849609375
vt 0.39453125 0.849609375
vt 0.4248046875 0.8955078125
vt 0.39453125 0.8955078125
vt 0.2294921875 0.8447265625
vt 0.19921875 0.8447265625
vt 0.2294921875 0.890625
vt 0.19921875 0.890625
vt 0.2958984375 0.8447265625
vt 0.265625 0.8447265625
vt 0.2958984375 0.890625
vt 0.265625 0.890625
vt 0.3623046875 0.8291015625
vt 0.33203125 0.8291015625
vt 0.3623046875 0.875
vt 0.33203125 0.875
vt 0.0302734375 0.8046875
vt 0.0 0.8046875
vt 0.0302734375 0.8505859375
vt 0.0 0.8505859375
vt 0.0966796875 0.8046875
vt 0.06640625 0.8046875
vt 0.0966796875 0.8505859375
vt 0.06640625 0.8505859375
vt 0.1630859375 0.8046875
vt 0.1328125 0.8046875
vt 0.1630859375 0.8505859375
vt 0.1328125 0.8505859375
vt 0.4287109375 0.802734375
vt 0.3984375 0.802734375
vt 0.4287109375 0.8486328125
vt 0.3984375 0.8486328125
vt 0.2294921875 0.7978515625
vt 0.19921875 0.7978515625
vt 0.2294921875 0.84375
vt 0.19921875 0.84375
vt 0.2958984375 0.7978515625
vt 0.265625 0.7978515625
vt 0.2958984375 0.84375
vt 0.265625 0.84375
vt 0.3623046875 0.7822265625
vt 0.33203125 0.7822265625
vt 0.3623046875 0.828125
vt 0.33203125 0.828125
vt 0.0302734375 0.7578125
vt 0.0 0.7578125
vt 0.0302734375 0.8037109375
vt 0.0 0.8037109375
vt 0.0966796875 0.7578125
vt 0.06640625 0.7578125
vt 0.0966796875 0.8037109375
vt 0.06640625 0.8037109375
vt 0.1630859375 0.7578125
vt 0.1328125 0.7578125
vt 0.1630859375 0.8037109375
vt 0.1328125 0.8037109375
vt 0.4287109375 0.755859375
vt 0.3984375 0.755859375
vt 0.4287109375 0.8017578125
vt 0.3984375 0.8017578125
vt 0.5302734375 0.91796875
vt 0.5 0.91796875
vt 0.5302734375 0.9638671875
vt 0.5 0.9638671875
vt 0.5966796875 0.91796875
vt 0.56640625 0.91796875
vt 0.5966796875 0.9638671875
vt 0.56640625 0.9638671875
vt 0.6630859375 0.91796875
vt 0.6328125 0.91796875
vt 0.6630859375 0.9638671875
vt 0.6328125 0.9638671875
vt 0.7294921875 0.91796875
vt 0.69921875 0.91796875
vt 0.7294921875 0.9638671875
vt 0.69921875 0.9638671875
vt 0.7958984375 0.91796875
vt 0.765625 0.91796875
vt 0.7958984375 0.9638671875
vt 0.765625 0.9638671875
vt 0.8623046875 0.91796875
vt 0.83203125 0.91796875
vt 0.8623046875 0.9638671875
vt 0.83203125 0.9638671875
vt 0.9287109375 0.91796875
vt 0.8984375 0.91796875
vt 0.9287109375 0.9638671875
vt 0.8984375 0.9638671875
vt 0.5302734375 0.87109375
vt 0.5 0.87109375
vt 0.5302734375 0.9169921875
vt 0.5 0.9169921875
vt 0.5966796875 0.87109375
vt 0.56640625 0.87109375
vt 0.5966796875 0.9169921875
vt 0.56640625 0.9169921875
vt 0.6630859375 0.87109375
vt 0.6328125 0.87109375
vt 0.6630859375 0.9169921875
vt 0.6328125 0.9169921875
vt 0.7294921875 0.87109375
vt 0.69921875 0.87109375
vt 0.7294921875 0.9169921875
vt 0.69921875 0.9169921875
vt 0.7958984375 0.87109375
vt 0.765625 0.87109375
vt 0.7958984375 0.9169921875
vt 0.765625 0.9169921875
vt 0.8623046875 0.87109375
vt 0.83203125 0.87109375
vt 0.8623046875 0.9169921875
vt 0.83203125 0.9169921875
vt 0.9287109375 0.87109375
vt 0.8984375 0.87109375
vt 0.9287109375 0.9169921875
vt 0.8984375 0.9169921875
vt 0.5302734375 0.82421875
vt 0.5 0.82421875
vt 0.5302734375 0.8701171875
vt 0.5 0.8701171875
vt 0.5966796875 0.82421875
vt 0.56640625 0.82421875
vt 0.5966796875 0.8701171875
vt 0.56640625 0.8701171875
vt 0.6630859375 0.82421875
vt 0.6328125 0.82421875
vt 0.6630859375 0.8701171875
vt 0.6328125 0.8701171875
vt 0.7294921875 0.82421875
vt 0.69921875 0.82421875
vt 0.7294921875 0.8701171875
vt 0.69921875 0.8701171875
vt 0.7958984375 0.82421875
vt 0.765625 0.82421875
vt 0.7958984375 0.8701171875
vt 0.765625 0.8701171875
vt 0.8623046875 0.82421875
vt 0.83203125 0.82421875
vt 0.8623046875 0.8701171875
vt 0.83203125 0.8701171875
vt 0.9287109375 0.82421875
vt 0.8984375 0.82421875
vt 0.9287109375 0.8701171875
vt 0.8984375 0.8701171875
vt 0.5302734375 0.77734375
vt 0.5 0.77734375
vt 0.5302734375 0.8232421875
vt 0.5 0.8232421875
vt 0.5966796875 0.77734375
vt 0.56640625 0.77734375
vt 0.5966796875 0.8232421875
vt 0.56640625 0.8232421875
vt 0.6630859375 0.77734375
vt 0.6328125 0.77734375
vt 0.6630859375 0.8232421875
vt 0.6328125 0.8232421875
vt 0.7294921875 0.77734375
vt 0.69921875 0.77734375
vt 0.7294921875 0.8232421875
vt 0.69921875 0.8232421875
vt 0.7958984375 0.77734375
vt 0.765625 0.77734375
vt 0.7958984375 0.8232421875
vt 0.765625 0.8232421875
vt 0.8623046875 0.77734375
vt 0.83203125 0.77734375
vt 0.8623046875 0.8232421875
vt 0.83203125 0.8232421875
vt 0.9287109375 0.77734375
vt 0.8984375 0.77734375
vt 0.9287109375 0.8232421875
vt 0.8984375 0.8232421875
vt 0.0302734375 0.7041015625
vt 0.0 0.7041015625
vt 0.0302734375 0.75
vt 0.0 0.75
vt 0.0966796875 0.7041015625
vt 0.06640625 0.7041015625
vt 0.0966796875 0.75
vt 0.06640625 0.75
vt 0.1630859375 0.7041015625
vt 0.1328125 0.7041015625
vt 0.1630859375 0.75
vt 0.1328125 0.75
vt 0.2294921875 0.7041015625
vt 0.19921875 0.7041015625
vt 0.2294921875 0.75
vt 0.19921875 0.75
vt 0.2958984375 0.7041015625
vt 0.265625 0.7041015625
vt 0.2958984375 0.75
vt 0.265625 0.75
vt 0.3623046875 0.7041015625
vt 0.33203125 0.7041015625
vt 0.3623046875 0.75
vt 0.33203125 0.75
vt 0.4287109375 0.7041015625
vt 0.3984375 0.7041015625
vt 0.4287109375 0.75
vt 0.3984375 0.75
vt 0.0302734375 0.6572265625
vt 0.0 0.6572265625
vt 0.0302734375 0.703125
vt 0.0 0.703125
vt 0.0966796875 0.6572265625
vt 0.06640625 0.6572265625
vt 0.0966796875 0.703125
vt 0.06640625 0.703125
vt 0.1630859375 0.6572265625
vt 0.1328125 0.6572265625
vt 0.1630859375 0.703125
vt 0.1328125 0.703125
vt 0.2294921875 0.6572265625
vt 0.19921875 0.6572265625
vt 0.2294921875 0.703125
vt 0.19921875 0.703125
vt 0.2958984375 0.6572265625
vt 0.265625 0.6572265625
vt 0.2958984375 0.703125
vt 0.265625 0.703125
vt 0.3623046875 0.6572265625
vt 0.33203125 0.6572265625
vt 0.3623046875 0.703125
vt 0.33203125 0.703125
vt 0.4287109375 0.6572265625
vt 0.3984375 0.6572265625
vt 0.4287109375 0.703125
vt 0.3984375 0.703125
vt 0.0302734375 0.6103515625
vt 0.0 0.6103515625
vt 0.0302734375 0.65625
vt 0.0 0.65625
vt 0.0966796875 0.6103515625
vt 0.06640625 0.6103515625
vt 0.0966796875 0.65625
vt 0.06640625 0.65625
vt 0.3212890625 0.943359375
vt 0.3203125 0.943359375
vt 0.3212890625 0.9443359375
vt 0.3203125 0.9443359375
vt 0.3125 0.7578125
vt 0.25 0.7578125
vt 0.3125 0.796875
vt 0.25 0.796875
vt 0.1953125 0.6171875
vt 0.1328125 0.6171875
vt 0.1953125 0.65625
vt 0.1328125 0.65625
vt 0.1953125 0.578125
vt 0.1328125 0.578125
vt 0.1953125 0.6171875
vt 0.1328125 0.6171875
vt 0.0625 0.5703125
vt 0.0 0.5703125
vt 0.0625 0.609375
vt 0.0 0.609375
vt 0.12890625 0.5703125
vt 0.06640625 0.5703125
vt 0.12890625 0.609375
vt 0.06640625 0.609375
vt 0.189453125 0.9423828125
vt 0.0625 0.9423828125
vt 0.189453125 0.9638671875
vt 0.0625 0.9638671875
vt 0.32421875 0.921875
vt 0.22265625 0.921875
vt 0.32421875 0.9423828125
vt 0.22265625 0.9423828125
vt 0.109375 0.8974609375
vt 0.0 0.8974609375
vt 0.109375 0.9423828125
vt 0.0 0.9423828125
vt 0.236328125 0.7734375
vt 0.19921875 0.7734375
vt 0.236328125 0.796875
vt 0.19921875 0.796875
vt 0.353515625 0.7578125
vt 0.31640625 0.7578125
vt 0.353515625 0.78125
vt 0.31640625 0.78125
vt 0.396484375 0.7578125
vt 0.359375 0.7578125
vt 0.396484375 0.78125
vt 0.359375 0.78125
vt 0.224609375 0.7578125
vt 0.19921875 0.7578125
vt 0.224609375 0.7734375
vt 0.19921875 0.7734375
vt 0.345703125 0.9443359375
vt 0.3203125 0.9443359375
vt 0.345703125 0.9638671875
vt 0.3203125 0.9638671875
vt 0.486328125 0.7548828125
vt 0.46484375 0.7548828125
vt 0.486328125 0.7744140625
vt 0.46484375 0.7744140625
vt 0.376953125 0.9443359375
vt 0.3515625 0.9443359375
vt 0.376953125 0.9638671875
vt 0.3515625 0.9638671875
vt 0.408203125 0.9443359375
vt 0.3828125 0.9443359375
vt 0.408203125 0.9638671875
vt 0.3828125 0.9638671875
vt 0.439453125 0.9443359375
vt 0.4140625 0.9443359375
vt 0.439453125 0.9638671875
vt 0.4140625 0.9638671875
vt 0.470703125 0.9443359375
vt 0.4453125 0.9443359375
vt 0.470703125 0.9638671875
vt 0.4453125 0.9638671875
vt 0.419921875 0.90234375
vt 0.39453125 0.90234375
vt 0.419921875 0.921875
vt 0.39453125 0.921875
vt 0.490234375 0.8134765625
vt 0.46484375 0.8134765625
vt 0.490234375 0.8330078125
vt 0.46484375 0.8330078125
vt 0.490234375 0.7939453125
vt 0.46484375 0.7939453125
vt 0.490234375 0.8134765625
vt 0.46484375 0.8134765625
vt 0.490234375 0.7744140625
vt 0.46484375 0.7744140625
vt 0.490234375 0.7939453125
vt 0.46484375 0.7939453125
vt 0.537109375 0.7529296875
vt 0.5 0.7529296875
vt 0.537109375 0.7763671875
vt 0.5 0.7763671875
vt 0.2734375 0.890625
vt 0.22265625 0.890625
vt 0.2734375 0.921875
vt 0.22265625 0.921875
vt 0.490234375 0.9521484375
vt 0.4765625 0.9521484375
vt 0.490234375 0.9638671875
vt 0.4765625 0.9638671875
vt 0.330078125 0.78515625
vt 0.31640625 0.78515625
vt 0.330078125 0.796875
vt 0.31640625 0.796875
vt 0.978515625 0.8017578125
vt 0.96484375 0.8017578125
vt 0.978515625 0.8134765625
vt 0.96484375 0.8134765625
vt 0.978515625 0.7900390625
vt 0.96484375 0.7900390625
vt 0.978515625 0.8017578125
vt 0.96484375 0.8017578125
vt 0.9775390625 0.7783203125
vt 0.96484375 0.7783203125
vt 0.9775390625 0.7900390625
vt 0.96484375 0.7900390625
vt 0.9775390625 0.7666015625
vt 0.96484375 0.7666015625
vt 0.9775390625 0.7783203125
vt 0.96484375 0.7783203125
vt 0.763671875 0.7646484375
vt 0.75 0.7646484375
vt 0.763671875 0.7763671875
vt 0.75 0.7763671875
vt 0.7822265625 0.7646484375
vt 0.76953125 0.7646484375
vt 0.7822265625 0.7763671875
vt 0.76953125 0.7763671875
vt 0.7412109375 0.7646484375
vt 0.734375 0.7646484375
vt 0.7412109375 0.7763671875
vt 0.734375 0.7763671875
vt 0.802734375 0.7646484375
vt 0.7890625 0.7646484375
vt 0.802734375 0.7763671875
vt 0.7890625 0.7763671875
vt 0.8212890625 0.7646484375
vt 0.80859375 0.7646484375
vt 0.8212890625 0.7763671875
vt 0.80859375 0.7763671875
vt 0.8408203125 0.7646484375
vt 0.828125 0.7646484375
vt 0.8408203125 0.7763671875
vt 0.828125 0.7763671875
vt 0.8623046875 0.7646484375
vt 0.84765625 0.7646484375
vt 0.8623046875 0.7763671875
vt 0.84765625 0.7763671875
vt 0.880859375 0.7646484375
vt 0.8671875 0.7646484375
vt 0.880859375 0.7763671875
vt 0.8671875 0.7763671875
vt 0.9013671875 0.7646484375
vt 0.88671875 0.7646484375
vt 0.9013671875 0.7763671875
vt 0.88671875 0.7763671875
vt 0.9189453125 0.7646484375
vt 0.90625 0.7646484375
vt 0.9189453125 0.7763671875
vt 0.90625 0.7763671875
vt 0.9404296875 0.7646484375
vt 0.92578125 0.7646484375
vt 0.9404296875 0.7763671875
vt 0.92578125 0.7763671875
vt 0.9580078125 0.7646484375
vt 0.9453125 0.7646484375
vt 0.9580078125 0.7763671875
vt 0.9453125 0.7763671875
vt 0.9775390625 0.7548828125
vt 0.96484375 0.7548828125
vt 0.9775390625 0.7666015625
vt 0.96484375 0.7666015625
vt 0.7626953125 0.7529296875
vt 0.75 0.7529296875
vt 0.7626953125 0.7646484375
vt 0.75 0.7646484375
vt 0.783203125 0.7529296875
vt 0.76953125 0.7529296875
vt 0.783203125 0.7646484375
vt 0.76953125 0.7646484375
vt 0.802734375 0.7529296875
vt 0.7890625 0.7529296875
vt 0.802734375 0.7646484375
vt 0.7890625 0.7646484375
vt 0.8232421875 0.7529296875
vt 0.80859375 0.7529296875
vt 0.8232421875 0.7646484375
vt 0.80859375 0.7646484375
vt 0.8408203125 0.7529296875
vt 0.828125 0.7529296875
vt 0.8408203125 0.7646484375
vt 0.828125 0.7646484375
vt 0.8603515625 0.7529296875
vt 0.84765625 0.7529296875
vt 0.8603515625 0.7646484375
vt 0.84765625 0.7646484375
vt 0.8798828125 0.7529296875
vt 0.8671875 0.7529296875
vt 0.8798828125 0.7646484375
vt 0.8671875 0.7646484375
vt 0.9013671875 0.7529296875
vt 0.88671875 0.7529296875
vt 0.9013671875 0.7646484375
vt 0.88671875 0.7646484375
vt 0.7412109375 0.7529296875
vt 0.734375 0.7529296875
vt 0.7412109375 0.7646484375
vt 0.734375 0.7646484375
vt 0.9208984375 0.7529296875
vt 0.90625 0.7529296875
vt 0.9208984375 0.7646484375
vt 0.90625 0.7646484375
vt 0.9404296875 0.7529296875
vt 0.92578125 0.7529296875
vt 0.9404296875 0.7646484375
vt 0.92578125 0.7646484375
vt 0.9599609375 0.7529296875
vt 0.9453125 0.7529296875
vt 0.9599609375 0.7646484375
vt 0.9453125 0.7646484375
vt 0.1982421875 0.56640625
vt 0.18359375 0.56640625
vt 0.1982421875 0.578125
vt 0.18359375 0.578125
vt 0.1201171875 0.55859375
vt 0.10546875 0.55859375
vt 0.1201171875 0.5703125
vt 0.10546875 0.5703125
vt 0.1962890625 0.5546875
vt 0.18359375 0.5546875
vt 0.1962890625 0.56640625
vt 0.18359375 0.56640625
vt 0.2177734375 0.55078125
vt 0.203125 0.55078125
vt 0.2177734375 0.5625
vt 0.203125 0.5625
vt 0.2373046875 0.55078125
vt 0.22265625 0.55078125
vt 0.2373046875 0.5625
vt 0.22265625 0.5625
vt 0.240234375 0.76171875
vt 0.23046875 0.76171875
vt 0.240234375 0.7734375
vt 0.23046875 0.7734375
vt 0.2060546875 0.892578125
vt 0.19921875 0.892578125
vt 0.2060546875 0.8974609375
vt 0.19921875 0.8974609375
vt 0.9892578125 0.8017578125
vt 0.984375 0.8017578125
vt 0.9892578125 0.8134765625
vt 0.984375 0.8134765625
vt 0.119140625 0.546875
vt 0.10546875 0.546875
vt 0.119140625 0.55859375
vt 0.10546875 0.55859375
vt 0.2158203125 0.892578125
vt 0.2109375 0.892578125
vt 0.2158203125 0.8974609375
vt 0.2109375 0.8974609375
vt 0.029296875 0.515625
vt 0.01953125 0.515625
vt 0.029296875 0.52734375
vt 0.01953125 0.52734375
vt 0.9892578125 0.791015625
vt 0.984375 0.791015625
vt 0.9892578125 0.8017578125
vt 0.984375 0.8017578125
vt 0.9892578125 0.7802734375
vt 0.984375 0.7802734375
vt 0.9892578125 0.791015625
vt 0.984375 0.791015625
vt 0.2412109375 0.501953125
vt 0.23046875 0.501953125
vt 0.2412109375 0.5126953125
vt 0.23046875 0.5126953125
vt 0.4892578125 0.9423828125
vt 0.4765625 0.9423828125
vt 0.4892578125 0.9521484375
vt 0.4765625 0.9521484375
vt 0.0888671875 0.517578125
vt 0.078125 0.517578125
vt 0.0888671875 0.52734375
vt 0.078125 0.52734375
vt 0.0126953125 0.9423828125
vt 0.0 0.9423828125
vt 0.0126953125 0.94921875
vt 0.0 0.94921875
vt 0.0322265625 0.9462890625
vt 0.01953125 0.9462890625
vt 0.0322265625 0.94921875
vt 0.01953125 0.94921875
vt 0.2041015625 0.7529296875
vt 0.19921875 0.7529296875
vt 0.2041015625 0.7578125
vt 0.19921875 0.7578125
vt 0.2158203125 0.75390625
vt 0.2109375 0.75390625
vt 0.2158203125 0.7578125
vt 0.2109375 0.7578125
vt 0.197265625 0.54296875
vt 0.18359375 0.54296875
vt 0.197265625 0.5546875
vt 0.18359375 0.5546875
vt 0.216796875 0.5390625
vt 0.203125 0.5390625
vt 0.216796875 0.55078125
vt 0.203125 0.55078125
vt 0.236328125 0.5390625
vt 0.22265625 0.5390625
vt 0.236328125 0.55078125
vt 0.22265625 0.55078125
vt 0.119140625 0.53515625
vt 0.10546875 0.53515625
vt 0.119140625 0.546875
vt 0.10546875 0.546875
vt 0.197265625 0.53125
vt 0.18359375 0.53125
vt 0.197265625 0.54296875
vt 0.18359375 0.54296875
vt 0.9892578125 0.7685546875
vt 0.984375 0.7685546875
vt 0.9892578125 0.7802734375
vt 0.984375 0.7802734375
vt 0.013671875 0.5244140625
vt 0.0 0.5244140625
vt 0.013671875 0.5390625
vt 0.0 0.5390625
vt 0.033203125 0.52734375
vt 0.01953125 0.52734375
vt 0.033203125 0.5390625
vt 0.01953125 0.5390625
vt 0.990234375 0.7568359375
vt 0.984375 0.7568359375
vt 0.990234375 0.7685546875
vt 0.984375 0.7685546875
vt 0.052734375 0.5302734375
vt 0.0390625 0.5302734375
vt 0.052734375 0.5390625
vt 0.0390625 0.5390625
vt 0.072265625 0.5302734375
vt 0.05859375 0.5302734375
vt 0.072265625 0.5390625
vt 0.05859375 0.5390625
vt 0.091796875 0.52734375
vt 0.078125 0.52734375
vt 0.091796875 0.5390625
vt 0.078125 0.5390625
vt 0.9814453125 0.822265625
vt 0.96484375 0.822265625
vt 0.9814453125 0.8310546875
vt 0.96484375 0.8310546875
vt 0.216796875 0.5302734375
vt 0.203125 0.5302734375
vt 0.216796875 0.5390625
vt 0.203125 0.5390625
vt 0.236328125 0.5302734375
vt 0.22265625 0.5302734375
vt 0.236328125 0.5390625
vt 0.22265625 0.5390625
vt 0.111328125 0.5234375
vt 0.09765625 0.5234375
vt 0.111328125 0.53515625
vt 0.09765625 0.53515625
vt 0.0107421875 0.5126953125
vt 0.0 0.5126953125
vt 0.0107421875 0.5244140625
vt 0.0 0.5244140625
vt 0.130859375 0.5234375
vt 0.1171875 0.5234375
vt 0.130859375 0.53515625
vt 0.1171875 0.53515625
vt 0.150390625 0.5224609375
vt 0.13671875 0.5224609375
vt 0.150390625 0.53125
vt 0.13671875 0.53125
vt 0.169921875 0.5224609375
vt 0.15625 0.5224609375
vt 0.169921875 0.53125
vt 0.15625 0.53125
vt 0.189453125 0.5224609375
vt 0.17578125 0.5224609375
vt 0.189453125 0.53125
vt 0.17578125 0.53125
vt 0.052734375 0.521484375
vt 0.0390625 0.521484375
vt 0.052734375 0.5302734375
vt 0.0390625 0.5302734375
vt 0.9814453125 0.8134765625
vt 0.96484375 0.8134765625
vt 0.9814453125 0.822265625
vt 0.96484375 0.822265625
vt 0.072265625 0.521484375
vt 0.05859375 0.521484375
vt 0.072265625 0.5302734375
vt 0.05859375 0.5302734375
vt 0.208984375 0.5185546875
vt 0.1953125 0.5185546875
vt 0.208984375 0.5302734375
vt 0.1953125 0.5302734375
vt 0.2275390625 0.521484375
vt 0.21484375 0.521484375
vt 0.2275390625 0.5302734375
vt 0.21484375 0.5302734375
o 0a1a800_0
v 4.0 0.0 4.0
v 0.0 0.0 4.0
v 2.0 0.0 4.0
v 3.0 0.0 4.0
v 1.0 0.0 4.0
v 4.0 0.0 0.0
v 4.0 0.0 2.0
v 4.0 0.0 1.0
v 4.0 0.0 3.0
v 0.0 0.0 0.0
v 2.0 0.0 0.0
v 0.0 0.0 2.0
v 2.0 0.0 2.0
v 1.0 0.0 2.0
v 2.0 0.0 1.0
v 1.0 0.0 1.0
v 3.0 0.0 3.0
v 3.0 0.0 2.0
v 2.0 0.0 3.0
v 3.0 0.0 0.0
v 3.0 0.0 1.0
v 1.0 0.0 0.0
v 0.0 0.0 1.0
v 1.0 0.0 3.0
v 0.0 0.0 3.0
vn 0 4096 0
vn -1 4096 0
vn 0 4096 0
vn 0 4096 0
vn 0 4096 0
vn -1 4096 -1
vn 0 4096 -1
vn -1 4096 -1
vn 0 4096 0
vn 0 4096 -1
vn 0 4096 -1
vn -1 4096 -1
vn 0 4096 -1
vn -1 4096 -1
vn 0 4096 -1
vn 0 4096 -1
vn 0 4096 0
vn 0 4096 -1
vn 0 4096 0
vn -1 4096 -1
vn -1 4096 -1
vn 0 4096 -1
vn 0 4096 -1
vn -1 4096 0
vn -1 4096 0
f 14/2/14 13/1/13 15/3/15 16/4/16
f 19/2/19 17/1/17 18/3/18 13/4/13
f 11/2/11 15/1/15 21/3/21 20/4/20
f 18/2/18 7/1/7 8/3/8 21/4/21
f 10/2/10 23/1/23 16/3/16 22/4/22
f 19/2/19 24/1/24 5/3/5 3/4/3
f 25/2/25 24/1/24 14/3/14 12/4/12
f 9/2/9 17/1/17 4/3/4 1/4/1
f 12/2/12 14/1/14 16/3/16 23/4/23
f 17/2/17 19/1/19 3/3/3 4/4/4
f 21/2/21 8/1/8 6/3/6 20/4/20
f 15/2/15 11/1/11 22/3/22 16/4/16
f 24/2/24 19/1/19 13/3/13 14/4/14
f 17/2/17 9/1/9 7/3/7 18/4/18
f 13/2/13 18/1/18 21/3/21 15/4/15
f 24/2/24 25/1/25 2/3/2 5/4/5
