# Generated by ps1_brender tools: https://github.com/OverSurge/PS1-BRender-Reverse
mtllib T0L0M005.MTL
usemtl mtl1
s off
vt 0.1015625 0.8046875
vt 0.0703125 0.8046875
vt 0.1015625 0.8359375
vt 0.0703125 0.8359375
vt 0.1015625 0.8046875
vt 0.0703125 0.8046875
vt 0.1015625 0.8359375
vt 0.0703125 0.8359375
vt 0.013671875 0.759765625
vt 0.0 0.759765625
vt 0.013671875 0.7734375
vt 0.0 0.7734375
vt 0.033203125 0.755859375
vt 0.01953125 0.755859375
vt 0.033203125 0.76953125
vt 0.01953125 0.76953125
vt 0.44921875 0.91015625
vt 0.4375 0.91015625
vt 0.44921875 0.92578125
vt 0.4375 0.92578125
vt 0.169921875 0.755859375
vt 0.15625 0.755859375
vt 0.169921875 0.76953125
vt 0.15625 0.76953125
vt 0.33984375 0.83984375
vt 0.328125 0.83984375
vt 0.33984375 0.853515625
vt 0.328125 0.853515625
vt 0.35546875 0.83984375
vt 0.34375 0.83984375
vt 0.35546875 0.853515625
vt 0.34375 0.853515625
vt 0.013671875 0.7734375
vt 0.0 0.7734375
vt 0.013671875 0.7890625
vt 0.0 0.7890625
vt 0.033203125 0.76953125
vt 0.01953125 0.76953125
vt 0.033203125 0.78515625
vt 0.01953125 0.78515625
vt 0.166015625 0.76953125
vt 0.15234375 0.76953125
vt 0.166015625 0.78515625
vt 0.15234375 0.78515625
vt 0.46484375 0.83984375
vt 0.453125 0.83984375
vt 0.46484375 0.853515625
vt 0.453125 0.853515625
vt 0.48046875 0.83984375
vt 0.46875 0.83984375
vt 0.48046875 0.853515625
vt 0.46875 0.853515625
vt 0.068359375 0.8046875
vt 0.0625 0.8046875
vt 0.068359375 0.818359375
vt 0.0625 0.818359375
vt 0.224609375 0.751953125
vt 0.21484375 0.751953125
vt 0.224609375 0.763671875
vt 0.21484375 0.763671875
vt 0.337890625 0.826171875
vt 0.328125 0.826171875
vt 0.337890625 0.83984375
vt 0.328125 0.83984375
vt 0.44921875 0.8828125
vt 0.4375 0.8828125
vt 0.44921875 0.89453125
vt 0.4375 0.89453125
vt 0.140625 0.79296875
vt 0.1328125 0.79296875
vt 0.140625 0.8046875
vt 0.1328125 0.8046875
vt 0.05078125 0.751953125
vt 0.0390625 0.751953125
vt 0.05078125 0.76171875
vt 0.0390625 0.76171875
vt 0.474609375 0.94140625
vt 0.46484375 0.94140625
vt 0.474609375 0.951171875
vt 0.46484375 0.951171875
vt 0.353515625 0.826171875
vt 0.34375 0.826171875
vt 0.353515625 0.83984375
vt 0.34375 0.83984375
vt 0.369140625 0.826171875
vt 0.359375 0.826171875
vt 0.369140625 0.83984375
vt 0.359375 0.83984375
vt 0.185546875 0.76953125
vt 0.171875 0.76953125
vt 0.185546875 0.78515625
vt 0.171875 0.78515625
vt 0.37109375 0.83984375
vt 0.359375 0.83984375
vt 0.37109375 0.853515625
vt 0.359375 0.853515625
vt 0.19140625 0.755859375
vt 0.17578125 0.755859375
vt 0.19140625 0.76953125
vt 0.17578125 0.76953125
vt 0.38671875 0.83984375
vt 0.375 0.83984375
vt 0.38671875 0.853515625
vt 0.375 0.853515625
vt 0.158203125 0.79296875
vt 0.140625 0.79296875
vt 0.158203125 0.806640625
vt 0.140625 0.806640625
vt 0.205078125 0.765625
vt 0.19140625 0.765625
vt 0.205078125 0.78125
vt 0.19140625 0.78125
vt 0.482421875 0.966796875
vt 0.46875 0.966796875
vt 0.482421875 0.98046875
vt 0.46875 0.98046875
vt 0.38671875 0.826171875
vt 0.375 0.826171875
vt 0.38671875 0.83984375
vt 0.375 0.83984375
vt 0.462890625 0.953125
vt 0.44921875 0.953125
vt 0.462890625 0.966796875
vt 0.44921875 0.966796875
vt 0.20703125 0.82421875
vt 0.203125 0.82421875
vt 0.20703125 0.8359375
vt 0.203125 0.8359375
vt 0.4921875 0.884765625
vt 0.484375 0.884765625
vt 0.4921875 0.896484375
vt 0.484375 0.896484375
vt 0.462890625 0.8828125
vt 0.453125 0.8828125
vt 0.462890625 0.89453125
vt 0.453125 0.89453125
vt 0.060546875 0.94140625
vt 0.046875 0.94140625
vt 0.060546875 0.953125
vt 0.046875 0.953125
vt 0.478515625 0.8828125
vt 0.46875 0.8828125
vt 0.478515625 0.89453125
vt 0.46875 0.89453125
vt 0.4921875 0.94140625
vt 0.48046875 0.94140625
vt 0.4921875 0.951171875
vt 0.48046875 0.951171875
vt 0.400390625 0.83984375
vt 0.390625 0.83984375
vt 0.400390625 0.853515625
vt 0.390625 0.853515625
vt 0.416015625 0.83984375
vt 0.40625 0.83984375
vt 0.416015625 0.853515625
vt 0.40625 0.853515625
vt 0.400390625 0.830078125
vt 0.390625 0.830078125
vt 0.400390625 0.83984375
vt 0.390625 0.83984375
vt 0.46484375 0.91015625
vt 0.453125 0.91015625
vt 0.46484375 0.92578125
vt 0.453125 0.92578125
vt 0.224609375 0.763671875
vt 0.2109375 0.763671875
vt 0.224609375 0.779296875
vt 0.2109375 0.779296875
vt 0.046875 0.802734375
vt 0.02734375 0.802734375
vt 0.046875 0.818359375
vt 0.02734375 0.818359375
vt 0.076171875 0.775390625
vt 0.0625 0.775390625
vt 0.076171875 0.791015625
vt 0.0625 0.791015625
vt 0.208984375 0.751953125
vt 0.1953125 0.751953125
vt 0.208984375 0.765625
vt 0.1953125 0.765625
vt 0.43359375 0.83984375
vt 0.421875 0.83984375
vt 0.43359375 0.853515625
vt 0.421875 0.853515625
vt 0.044921875 0.818359375
vt 0.02734375 0.818359375
vt 0.044921875 0.833984375
vt 0.02734375 0.833984375
vt 0.462890625 0.966796875
vt 0.44921875 0.966796875
vt 0.462890625 0.98046875
vt 0.44921875 0.98046875
vt 0.416015625 0.830078125
vt 0.40625 0.830078125
vt 0.416015625 0.83984375
vt 0.40625 0.83984375
vt 0.43359375 0.830078125
vt 0.421875 0.830078125
vt 0.43359375 0.83984375
vt 0.421875 0.83984375
vt 0.22265625 0.884765625
vt 0.20703125 0.884765625
vt 0.22265625 0.89453125
vt 0.20703125 0.89453125
vt 0.44921875 0.830078125
vt 0.4375 0.830078125
vt 0.44921875 0.83984375
vt 0.4375 0.83984375
vt 0.46484375 0.830078125
vt 0.453125 0.830078125
vt 0.46484375 0.83984375
vt 0.453125 0.83984375
vt 0.458984375 0.94140625
vt 0.44921875 0.94140625
vt 0.458984375 0.953125
vt 0.44921875 0.953125
vt 0.44921875 0.83984375
vt 0.4375 0.83984375
vt 0.44921875 0.853515625
vt 0.4375 0.853515625
vt 0.478515625 0.91015625
vt 0.46875 0.91015625
vt 0.478515625 0.92578125
vt 0.46875 0.92578125
vt 0.44921875 0.89453125
vt 0.4375 0.89453125
vt 0.44921875 0.91015625
vt 0.4375 0.91015625
vt 0.46484375 0.89453125
vt 0.453125 0.89453125
vt 0.46484375 0.91015625
vt 0.453125 0.91015625
vt 0.48046875 0.89453125
vt 0.46875 0.89453125
vt 0.48046875 0.91015625
vt 0.46875 0.91015625
vt 0.052734375 0.76171875
vt 0.0390625 0.76171875
vt 0.052734375 0.77734375
vt 0.0390625 0.77734375
vt 0.072265625 0.759765625
vt 0.05859375 0.759765625
vt 0.072265625 0.775390625
vt 0.05859375 0.775390625
vt 0.26171875 0.837890625
vt 0.25 0.837890625
vt 0.26171875 0.853515625
vt 0.25 0.853515625
vt 0.091796875 0.759765625
vt 0.078125 0.759765625
vt 0.091796875 0.775390625
vt 0.078125 0.775390625
vt 0.068359375 0.818359375
vt 0.0625 0.818359375
vt 0.068359375 0.833984375
vt 0.0625 0.833984375
vt 0.076171875 0.89453125
vt 0.06640625 0.89453125
vt 0.076171875 0.90234375
vt 0.06640625 0.90234375
vt 0.091796875 0.89453125
vt 0.08203125 0.89453125
vt 0.091796875 0.90234375
vt 0.08203125 0.90234375
vt 0.130859375 0.775390625
vt 0.12109375 0.775390625
vt 0.130859375 0.791015625
vt 0.12109375 0.791015625
vt 0.490234375 0.951171875
vt 0.484375 0.951171875
vt 0.490234375 0.966796875
vt 0.484375 0.966796875
vt 0.478515625 0.951171875
vt 0.46875 0.951171875
vt 0.478515625 0.966796875
vt 0.46875 0.966796875
vt 0.048828125 0.794921875
vt 0.04296875 0.794921875
vt 0.048828125 0.802734375
vt 0.04296875 0.802734375
vt 0.12890625 0.896484375
vt 0.1171875 0.896484375
vt 0.12890625 0.90234375
vt 0.1171875 0.90234375
vt 0.490234375 0.873046875
vt 0.484375 0.873046875
vt 0.490234375 0.884765625
vt 0.484375 0.884765625
vt 0.1640625 0.787109375
vt 0.15234375 0.787109375
vt 0.1640625 0.79296875
vt 0.15234375 0.79296875
vt 0.099609375 0.75390625
vt 0.09375 0.75390625
vt 0.099609375 0.759765625
vt 0.09375 0.759765625
vt 0.076171875 0.751953125
vt 0.0703125 0.751953125
vt 0.076171875 0.759765625
vt 0.0703125 0.759765625
vt 0.27734375 0.837890625
vt 0.265625 0.837890625
vt 0.27734375 0.853515625
vt 0.265625 0.853515625
vt 0.08203125 0.791015625
vt 0.0625 0.791015625
vt 0.08203125 0.8046875
vt 0.0625 0.8046875
vt 0.10546875 0.791015625
vt 0.0859375 0.791015625
vt 0.10546875 0.8046875
vt 0.0859375 0.8046875
vt 0.12890625 0.791015625
vt 0.109375 0.791015625
vt 0.12890625 0.8046875
vt 0.109375 0.8046875
vt 0.01953125 0.7890625
vt 0.0 0.7890625
vt 0.01953125 0.802734375
vt 0.0 0.802734375
vt 0.11328125 0.75390625
vt 0.10546875 0.75390625
vt 0.11328125 0.759765625
vt 0.10546875 0.759765625
vt 0.125 0.75390625
vt 0.1171875 0.75390625
vt 0.125 0.759765625
vt 0.1171875 0.759765625
vt 0.11328125 0.759765625
vt 0.09765625 0.759765625
vt 0.11328125 0.775390625
vt 0.09765625 0.775390625
vt 0.1328125 0.759765625
vt 0.1171875 0.759765625
vt 0.1328125 0.775390625
vt 0.1171875 0.775390625
vt 0.06640625 0.75390625
vt 0.0546875 0.75390625
vt 0.06640625 0.759765625
vt 0.0546875 0.759765625
vt 0.220703125 0.798828125
vt 0.203125 0.798828125
vt 0.220703125 0.814453125
vt 0.203125 0.814453125
vt 0.490234375 0.896484375
vt 0.484375 0.896484375
vt 0.490234375 0.91015625
vt 0.484375 0.91015625
vt 0.15234375 0.759765625
vt 0.13671875 0.759765625
vt 0.15234375 0.775390625
vt 0.13671875 0.775390625
vt 0.01171875 0.75390625
vt 0.0 0.75390625
vt 0.01171875 0.759765625
vt 0.0 0.759765625
vt 0.009765625 0.94140625
vt 0.0 0.94140625
vt 0.009765625 0.9453125
vt 0.0 0.9453125
vt 0.08984375 0.751953125
vt 0.08203125 0.751953125
vt 0.08984375 0.759765625
vt 0.08203125 0.759765625
vt 0.291015625 0.837890625
vt 0.28125 0.837890625
vt 0.291015625 0.853515625
vt 0.28125 0.853515625
vt 0.2421875 0.759765625
vt 0.23046875 0.759765625
vt 0.2421875 0.779296875
vt 0.23046875 0.779296875
vt 0.111328125 0.896484375
vt 0.09765625 0.896484375
vt 0.111328125 0.90234375
vt 0.09765625 0.90234375
vt 0.4921875 0.91015625
vt 0.484375 0.91015625
vt 0.4921875 0.92578125
vt 0.484375 0.92578125
vt 0.30859375 0.837890625
vt 0.296875 0.837890625
vt 0.30859375 0.853515625
vt 0.296875 0.853515625
vt 0.32421875 0.837890625
vt 0.3125 0.837890625
vt 0.32421875 0.853515625
vt 0.3125 0.853515625
vt 0.125 0.94140625
vt 0.0625 0.94140625
vt 0.125 0.98046875
vt 0.0625 0.98046875
vt 0.037109375 0.78515625
vt 0.0234375 0.78515625
vt 0.037109375 0.802734375
vt 0.0234375 0.802734375
vt 0.095703125 0.775390625
vt 0.08203125 0.775390625
vt 0.095703125 0.791015625
vt 0.08203125 0.791015625
vt 0.115234375 0.775390625
vt 0.1015625 0.775390625
vt 0.115234375 0.791015625
vt 0.1015625 0.791015625
vt 0.177734375 0.78515625
vt 0.1640625 0.78515625
vt 0.177734375 0.802734375
vt 0.1640625 0.802734375
vt 0.197265625 0.78515625
vt 0.18359375 0.78515625
vt 0.197265625 0.802734375
vt 0.18359375 0.802734375
vt 0.216796875 0.78125
vt 0.203125 0.78125
vt 0.216796875 0.798828125
vt 0.203125 0.798828125
vt 0.236328125 0.779296875
vt 0.22265625 0.779296875
vt 0.236328125 0.796875
vt 0.22265625 0.796875
vt 0.060546875 0.953125
vt 0.046875 0.953125
vt 0.060546875 0.970703125
vt 0.046875 0.970703125
vt 0.056640625 0.77734375
vt 0.04296875 0.77734375
vt 0.056640625 0.794921875
vt 0.04296875 0.794921875
vt 0.146484375 0.775390625
vt 0.1328125 0.775390625
vt 0.146484375 0.79296875
vt 0.1328125 0.79296875
vt 0.240234375 0.796875
vt 0.2265625 0.796875
vt 0.240234375 0.814453125
vt 0.2265625 0.814453125
vt 0.041015625 0.9453125
vt 0.0 0.9453125
vt 0.041015625 0.970703125
vt 0.0 0.970703125
vt 0.23828125 0.814453125
vt 0.20703125 0.814453125
vt 0.23828125 0.853515625
vt 0.20703125 0.853515625
vt 0.05859375 0.794921875
vt 0.05078125 0.794921875
vt 0.05859375 0.833984375
vt 0.05078125 0.833984375
vt 0.25390625 0.94140625
vt 0.19140625 0.94140625
vt 0.25390625 0.98046875
vt 0.19140625 0.98046875
vt 0.3828125 0.94140625
vt 0.3203125 0.94140625
vt 0.3828125 0.98046875
vt 0.3203125 0.98046875
vt 0.021484375 0.802734375
vt 0.0 0.802734375
vt 0.021484375 0.833984375
vt 0.0 0.833984375
vt 0.169921875 0.806640625
vt 0.140625 0.806640625
vt 0.169921875 0.8359375
vt 0.140625 0.8359375
vt 0.197265625 0.802734375
vt 0.17578125 0.802734375
vt 0.197265625 0.8359375
vt 0.17578125 0.8359375
vt 0.259765625 0.912109375
vt 0.2265625 0.912109375
vt 0.259765625 0.94140625
vt 0.2265625 0.94140625
vt 0.330078125 0.912109375
vt 0.296875 0.912109375
vt 0.330078125 0.94140625
vt 0.296875 0.94140625
vt 0.400390625 0.912109375
vt 0.3671875 0.912109375
vt 0.400390625 0.94140625
vt 0.3671875 0.94140625
vt 0.259765625 0.8828125
vt 0.2265625 0.8828125
vt 0.259765625 0.912109375
vt 0.2265625 0.912109375
vt 0.330078125 0.8828125
vt 0.296875 0.8828125
vt 0.330078125 0.912109375
vt 0.296875 0.912109375
vt 0.400390625 0.8828125
vt 0.3671875 0.8828125
vt 0.400390625 0.912109375
vt 0.3671875 0.912109375
vt 0.099609375 0.865234375
vt 0.06640625 0.865234375
vt 0.099609375 0.89453125
vt 0.06640625 0.89453125
vt 0.169921875 0.865234375
vt 0.13671875 0.865234375
vt 0.169921875 0.89453125
vt 0.13671875 0.89453125
vt 0.240234375 0.853515625
vt 0.20703125 0.853515625
vt 0.240234375 0.8828125
vt 0.20703125 0.8828125
vt 0.310546875 0.853515625
vt 0.27734375 0.853515625
vt 0.310546875 0.8828125
vt 0.27734375 0.8828125
vt 0.380859375 0.853515625
vt 0.34765625 0.853515625
vt 0.380859375 0.8828125
vt 0.34765625 0.8828125
vt 0.451171875 0.853515625
vt 0.41796875 0.853515625
vt 0.451171875 0.8828125
vt 0.41796875 0.8828125
vt 0.099609375 0.8359375
vt 0.06640625 0.8359375
vt 0.099609375 0.865234375
vt 0.06640625 0.865234375
vt 0.169921875 0.8359375
vt 0.13671875 0.8359375
vt 0.169921875 0.865234375
vt 0.13671875 0.865234375
vt 0.033203125 0.833984375
vt 0.0 0.833984375
vt 0.033203125 0.86328125
vt 0.0 0.86328125
vt 0.17578125 0.89453125
vt 0.12890625 0.89453125
vt 0.17578125 0.94140625
vt 0.12890625 0.94140625
vt 0.13671875 0.8046875
vt 0.10546875 0.8046875
vt 0.13671875 0.8359375
vt 0.10546875 0.8359375
vt 0.0625 0.86328125
vt 0.0 0.86328125
vt 0.0625 0.90234375
vt 0.0 0.90234375
vt 0.0625 0.90234375
vt 0.0 0.90234375
vt 0.0625 0.94140625
vt 0.0 0.94140625
vt 0.4609375 0.92578125
vt 0.4375 0.92578125
vt 0.4609375 0.94140625
vt 0.4375 0.94140625
o T0L0M005_0
v 4.0 0.0 4.0
v 0.0 0.0 4.0
v 2.0 0.0 4.0
v 3.0 0.0 4.0
v 1.0 0.0 4.0
v 4.0 0.0 0.0
v 4.0 0.0 2.0
v 4.0 0.0 1.0
v 4.0 0.0 3.0
v 0.0 0.0 0.0
v 2.0 0.0 0.0
v 0.0 0.0 2.0
v 2.0 0.0 2.0
v 1.0 0.0 2.0
v 2.0 0.0 1.0
v 1.0 0.0 1.0
v 3.0 0.0 3.0
v 3.0 0.0 2.0
v 2.0 0.0 3.0
v 3.0 0.0 0.0
v 3.0 0.0 1.0
v 1.0 0.0 0.0
v 0.0 0.0 1.0
v 1.0 0.0 3.0
v 0.0 0.0 3.0
vn -1 4096 -1
vn 0 4096 -1
vn -1 4096 -1
vn -1 4096 -1
vn 0 4096 -1
vn -1 4096 0
vn -1 4096 -1
vn -1 4096 0
vn -1 4096 -1
vn 0 4096 0
vn 0 4096 0
vn 0 4096 -1
vn -1 4096 0
vn 0 4096 -1
vn 0 4096 0
vn 0 4096 0
vn -1 4096 -1
vn -1 4096 -1
vn -1 4096 -1
vn -1 4096 0
vn -1 4096 0
vn 0 4096 0
vn 0 4096 0
vn 0 4096 -1
vn 0 4096 -1
f 14/6/14 13/5/13 15/7/15 16/8/16
f 13/6/13 19/5/19 17/7/17 18/8/18
f 21/6/21 20/5/20 11/7/11 15/8/15
f 21/6/21 18/5/18 7/7/7 8/8/8
f 22/6/22 10/5/10 23/7/23 16/8/16
f 5/6/5 3/5/3 19/7/19 24/8/24
f 24/6/24 14/5/14 12/7/12 25/8/25
f 1/6/1 9/5/9 17/7/17 4/8/4
f 14/6/14 16/5/16 23/7/23 12/8/12
f 3/6/3 4/5/4 17/7/17 19/8/19
f 20/6/20 21/5/21 8/7/8 6/8/6
f 22/6/22 16/5/16 15/7/15 11/8/11
f 19/6/19 13/5/13 14/7/14 24/8/24
f 18/6/18 17/5/17 9/7/9 7/8/7
f 13/6/13 18/5/18 21/7/21 15/8/15
f 25/6/25 2/5/2 5/7/5 24/8/24
